<?xml version="1.0" encoding="UTF-8"?>
<svg id="_레이어_1" xmlns="http://www.w3.org/2000/svg" version="1.1" viewBox="0 0 298 92.87">
  <!-- Generator: Adobe Illustrator 29.5.1, SVG Export Plug-In . SVG Version: 2.1.0 Build 141)  -->
  <defs>
    <style>
      .st0 {
        fill: #8c8c8c;
      }
    </style>
  </defs>
  <path class="st0" d="M95.19,8.53c63.65-.04,127.29.11,190.94.08,2.46.47,4.32,2.43,4.76,4.89l-.02,41.67c-.67,2.12-3.58,2.21-4.08-.07V14.5c-.08-1.02-.42-1.66-1.47-1.89-63.05.03-126.09.14-189.14.08-2.55,1.66-4.93,3.64-7.39,5.44-.7.36-1.49.36-2.2.05l-7.31-5.52-65.66-.05c-1.04.2-1.48,1.19-1.63,2.14l-.02,16.25c-.58,2.12-3.64,1.65-3.92-.4l.09-17.35c.51-2.43,2.56-4.42,5.06-4.67h67.05c.45.11.89.31,1.28.57l6.19,4.54c.21,0,.83-.49,1.04-.63,1.38-.97,5.1-4.36,6.45-4.54Z"/>
  <path class="st0" d="M10.02,36.88c.95-.07,1.74.64,1.95,1.53v37.67c.1.88.37,1.84,1.3,2.13,21.59.23,43.19-.29,64.78,0,.32,0,.59.12.92.09,1.01-.1,5.54-4.08,6.83-4.92.67-.43,1.45-1.05,2.28-.83,2.75,1.61,5.12,3.95,7.84,5.58,63.09.2,126.22-.03,189.31.17,1.45-.2,1.56-1.42,1.64-2.64.24-4-.36-8.12-.17-12.08.05-.99.04-1.82.89-2.47,1.2-.92,3.11-.15,3.31,1.31.16,1.17-.26,2.79-.08,4.02.12,3.11.42,6.36.26,9.48-.17,3.35-1.81,5.82-5.24,6.42H95.08c-1.15-.11-5.16-3.69-6.42-4.57-.33-.23-.83-.72-1.2-.46l-6.15,4.59c-.99.56-2.08.46-3.18.44-19.2-.31-38.44.44-57.64.16-4.87-.07-11.38,1.08-12.46-5.32l.08-38.75c.09-.76,1.21-1.48,1.92-1.53Z"/>
  <path class="st0" d="M242.64,34.43c0,3.99.04,8.02-.92,11.91h3.61v2.47s-.12.13-.13.13h-9.86v9.23h-3.19v-9.23h-9.86s-.13-.12-.13-.13v-2.47h16.32l.8-4.03-14.56.76c-.11,0-.16-.04-.19-.14-.25-.67-.17-1.89-.35-2.63l15.26-.43c.01-.06.1-.17.1-.2v-2.73h-14.6v-2.52h17.71Z"/>
  <path class="st0" d="M267.9,33.92v2.6h-3.44v4.7h3.23s.13.12.13.13v2.39h-7.8v2.52h9.99v2.6h-23.08v-2.6h9.9v-2.52h-7.72v-2.39s.12-.13.13-.13h3.23v-4.7h-3.4s-.13-.12-.13-.13v-2.35s.12-.13.13-.13h18.84ZM261.18,36.52h-5.54v4.7h5.54v-4.7Z"/>
  <path class="st0" d="M51.74,35.1v8.98h8.94s.13.12.13.13v4.4h-9.06v8.98h-4.53v-8.98h-8.98v-4.53h8.98v-8.98h4.53Z"/>
  <polygon class="st0" points="131.79 32.92 131.79 58.16 128.6 58.16 128.6 45.41 126.17 45.41 126.17 56.99 123.15 56.99 123.15 33.34 126.17 33.34 126.17 42.81 128.6 42.81 128.6 32.92 131.79 32.92"/>
  <path class="st0" d="M155.71,46.84v6.63h-13.51v1.85h14.18v2.6h-17.37v-6.88h13.43v-1.68h-13.38s-.13-.12-.13-.13v-2.39h16.78Z"/>
  <path class="st0" d="M179.03,32.92v3.02h7.89v2.52h-7.8c.91,3.68,5.26,5.22,8.64,5.62l-1.08,2.47c-.09.13-1.22-.1-1.45-.14-2.13-.41-4.45-1.38-6.11-2.78-.64-.54-1.1-1.13-1.68-1.72-1.99,2.92-5.72,4.33-9.14,4.69l-1.1-2.51c2.08-.23,4.24-.86,5.98-2.03,1.21-.81,2.5-2.07,2.66-3.59h-7.72v-2.52h7.8v-3.02h3.1Z"/>
  <path class="st0" d="M117.53,33.84v3.52h4.36v2.6h-4.36c-.12,4.07,1.43,8.4,5.2,10.36l-1.82,2.3c-1.54-.68-2.78-2.09-3.7-3.49l-1.19-2.37c-.81,2.59-2.37,5.13-4.81,6.45l-1.82-2.38c3.75-2.15,5.25-6.72,5.12-10.87h-4.32s-.13-.12-.13-.13v-2.47h4.45v-3.52h3.02Z"/>
  <polygon class="st0" points="210.58 32.92 210.58 42.81 214.28 42.81 214.28 45.41 210.58 45.41 210.58 58.16 207.31 58.16 207.31 32.92 210.58 32.92"/>
  <path class="st0" d="M203.87,35.52c.25,7.22-3.25,13.27-9.32,16.98-.29.18-1.94,1.14-2.14,1.14-.11,0-.14-.06-.21-.12-.57-.53-1.1-1.72-1.68-2.31,5.24-2.44,9.59-7.01,10.07-13h-8.73v-2.68h12Z"/>
  <path class="st0" d="M189.1,50.7h-10.07v7.55h-3.1v-7.55h-9.99v-2.56s.12-.13.13-.13h22.91s.13.12.13.13v2.56Z"/>
  <path class="st0" d="M139.09,34.01v8.47c1.71-.13,3.45-.1,5.16-.25s3.33-.46,4.99-.67l.42,2.6c-4.54.85-9.15,1.01-13.76.92v-11.07h3.19Z"/>
  <polygon class="st0" points="252.96 50.53 252.96 55.15 267.39 55.15 267.39 57.75 249.77 57.75 249.77 50.53 252.96 50.53"/>
  <path class="st0" d="M155.71,32.92v12.92h-3.27v-6.54h-6.42s-.13-.12-.13-.13v-2.35s.12-.13.13-.13h6.42v-3.77h3.27Z"/>
  <path class="st0" d="M87.05,34.03c1.35-.19,2.41.59,2.54,1.95.15,1.67.14,4.12,0,5.79-.23,2.67-3.69,2.39-4.16.63-.29-1.08-.21-4.84-.13-6.09.07-1.03.62-2.12,1.75-2.28Z"/>
  <path class="st0" d="M87.3,20.94c1.2-.1,2.14.68,2.27,1.88.19,1.7.16,4.23,0,5.94-.22,2.47-3.62,2.36-4.14.53-.3-1.05-.23-4.92-.14-6.15s.77-2.1,2-2.2Z"/>
  <path class="st0" d="M87.04,47.28c1.61-.27,2.41.48,2.54,2.04.14,1.66.15,3.71,0,5.37-.25,2.85-3.72,2.68-4.16.47-.23-1.14-.26-5.2,0-6.3.17-.7.9-1.45,1.62-1.57Z"/>
  <path class="st0" d="M87.13,60.28c1.3-.21,2.36.98,2.46,2.2.13,1.62.13,3.75,0,5.37-.22,2.61-3.52,2.65-4.14.53-.28-.97-.24-5.32-.04-6.38.14-.71.99-1.6,1.72-1.72Z"/>
</svg>