<?xml version="1.0" encoding="UTF-8"?>
<svg id="_레이어_1" xmlns="http://www.w3.org/2000/svg" version="1.1" viewBox="0 0 298 286">
  <!-- Generator: Adobe Illustrator 30.0.0, SVG Export Plug-In . SVG Version: 2.1.1 Build 123)  -->
  <defs>
    <style>
      .st0 {
        fill: #fff;
      }

      .st1 {
        fill: #239e5a;
      }
    </style>
  </defs>
  <path class="st1" d="M71.78,25.79L13,95.62l197.41,170.04,64.33-6.66,7.09-65.31L71.78,25.79ZM246.57,242.48c-7.71,0-13.97-6.25-13.97-13.97s6.25-13.97,13.97-13.97,13.97,6.25,13.97,13.97-6.25,13.97-13.97,13.97Z"/>
  <g>
    <path class="st0" d="M82.12,115.39l24.87-29.37,8.22,6.96c3,2.54,5.16,5.26,6.47,8.15,1.31,2.89,1.65,5.91,1.05,9.06-.61,3.15-2.33,6.4-5.16,9.75-2.83,3.35-5.77,5.62-8.82,6.81-3.05,1.2-6.1,1.42-9.15.67-3.05-.75-6.01-2.34-8.89-4.77l-8.58-7.26ZM92.98,115.63l1.38,1.17c1.69,1.43,3.43,2.37,5.23,2.84,1.8.46,3.65.28,5.54-.53s3.83-2.4,5.82-4.75c2.01-2.37,3.24-4.53,3.69-6.48.45-1.95.28-3.75-.5-5.42-.79-1.66-2.02-3.21-3.71-4.63l-1.38-1.17-16.06,18.97Z"/>
    <path class="st0" d="M110.66,139.56l24.87-29.37,18.3,15.5-4.55,5.38-11.86-10.04-5.19,6.13,10.04,8.5-4.58,5.42-10.04-8.5-5.96,7.04,12.29,10.41-4.58,5.42-18.74-15.86Z"/>
    <path class="st0" d="M131.53,157.23l34.12-21.54,7.67,6.49-15.62,37.2-6.76-5.72,8.73-18.33c.85-1.86,1.77-3.78,2.77-5.76s1.95-3.9,2.85-5.77l-.16-.13c-1.69,1.24-3.42,2.51-5.21,3.8-1.79,1.29-3.52,2.52-5.19,3.68l-16.64,11.64-6.56-5.56ZM143.6,155.16l4.22-4.98,14.07,11.91-4.22,4.98-14.07-11.91Z"/>
    <path class="st0" d="M161.02,182.19l24.87-29.37,6.44,5.46-20.28,23.95,11.7,9.91-4.58,5.42-18.14-15.36Z"/>
  </g>
</svg>